<svg width="90" height="90" viewBox="0 0 90 90" fill="none" xmlns="http://www.w3.org/2000/svg">
<path fill-rule="evenodd" clip-rule="evenodd" d="M33.1434 85.0116L27.3307 75.0761C26.9557 74.519 26.3932 74.1476 25.7369 74.1476H12.7988L30.1765 47.0938L35.5205 48.0223L39.6457 55.5435C40.4895 57.3077 42.5521 58.0506 44.4271 57.3077L48.3648 55.5435L50.2399 58.7934L33.1434 85.0116Z" fill="white"/>
<path fill-rule="evenodd" clip-rule="evenodd" d="M29.4673 45.4814L36.4666 46.6976L40.951 54.8737L40.9686 54.9105C41.4502 55.9176 42.6528 56.4176 43.8588 55.9541L48.9729 53.6628L51.9602 58.8405L33.0749 87.8019L26.0914 75.8655C26.0146 75.759 25.9388 75.6948 25.8808 75.6598C25.8229 75.6249 25.778 75.6151 25.736 75.6151H10.1113L29.4673 45.4814ZM30.8839 48.7063L15.4845 72.6803H25.736C26.9928 72.6803 27.9687 73.3976 28.5471 74.2569L28.573 74.2953L33.2102 82.2215L48.5178 58.7466L47.7549 57.4244L44.9967 58.6602L44.9667 58.6721C42.4449 59.6711 39.554 58.701 38.3402 56.2164L34.5726 49.3473L30.8839 48.7063Z" fill="#FB6900"/>
<path fill-rule="evenodd" clip-rule="evenodd" d="M62.7457 74.4921L56.6961 85.1222L35.5389 54.2138C35.4413 53.9239 35.3437 53.7306 35.1486 53.5373L33.002 49.7685L33.685 49.4785L41.686 53.344C42.2714 53.6339 42.8569 53.7306 43.4423 53.7306C44.8083 53.7306 46.1744 53.0541 46.8574 51.7978L51.2482 43.9702L57.1026 42.9072L77.8696 73.5258H64.4045C63.7214 73.5258 63.0384 73.9123 62.7457 74.4921Z" fill="white"/>
<path fill-rule="evenodd" clip-rule="evenodd" d="M57.7819 41.293L80.6392 74.9934H64.4057C64.335 74.9934 64.2452 75.0154 64.1641 75.0623C64.0819 75.1098 64.0568 75.1538 64.0569 75.1537L64.0404 75.1863L56.8121 87.8877L34.2143 54.8749L34.1494 54.6821C34.129 54.6215 34.1155 54.5879 34.1082 54.5711L33.9743 54.4386L30.9121 49.0622L33.7254 47.8681L42.332 52.0261L42.3385 52.0293C42.6766 52.1967 43.028 52.2634 43.4436 52.2634C44.3584 52.2634 45.1821 51.8097 45.5695 51.0972L45.5741 51.0887L50.3076 42.6501L57.7819 41.293ZM52.1913 45.2908L48.1428 52.5083C47.1626 54.3021 45.2577 55.1982 43.4436 55.1982C42.6904 55.1982 41.8734 55.0723 41.043 54.6627L36.1265 52.2874L36.3422 52.666C36.5917 52.9557 36.7441 53.2502 36.8562 53.5388L56.5828 82.3571L61.4566 73.793C62.0351 72.6869 63.2473 72.0586 64.4057 72.0586H75.1025L56.4258 44.522L52.1913 45.2908Z" fill="#FB6900"/>
<path fill-rule="evenodd" clip-rule="evenodd" d="M44.8071 57.7076L36.0724 62.3722L31.2705 53.7707L21.3762 53.0175L22.0316 43.2099L14.1191 37.278L20.0238 29.3783L16.6053 20.1509L25.8845 16.6672L28.0453 7.07408L37.7531 9.11238L44.8071 2.19922L51.8612 9.11238L61.5689 7.07408L63.7297 16.6672L73.009 20.1509L69.5905 29.3783L75.4951 37.278L67.5827 43.2099L68.2381 53.0175L58.3438 53.7707L53.5419 62.3722L44.8071 57.7076Z" fill="white"/>
<path fill-rule="evenodd" clip-rule="evenodd" d="M44.807 0.144531L52.3276 7.51493L62.6826 5.34074L64.9871 15.5718L74.8924 19.2906L71.2437 29.1392L77.5476 37.573L69.0998 43.9064L69.799 54.3702L59.2408 55.1739L54.1209 64.345L44.807 59.371L35.4931 64.345L30.3732 55.1739L19.815 54.3702L20.5143 43.9064L12.0664 37.573L18.3703 29.1392L14.7216 19.2906L24.627 15.5718L26.9315 5.34074L37.2864 7.51493L44.807 0.144531ZM44.807 4.2537L38.2195 10.7096L29.159 8.80721L27.1418 17.7624L18.4887 21.0111L21.677 29.6172L16.1716 36.9827L23.5487 42.5133L22.9371 51.6646L32.1675 52.3672L36.6515 60.3993L44.807 56.0439L52.9625 60.3993L57.4465 52.3672L66.6769 51.6646L66.0653 42.5133L73.4424 36.9827L67.937 29.6172L71.1253 21.0111L62.4722 17.7624L60.4551 8.80721L51.3945 10.7096L44.807 4.2537Z" fill="#FB6900"/>
</svg>
