<svg width="80" height="80" viewBox="0 0 80 80" fill="none" xmlns="http://www.w3.org/2000/svg">
<path d="M40 43.5967L16 43.5V47C16 47 30.2896 48.9682 39.5 49C49.0996 49.0331 64 47 64 47L64.5 43.5967H40Z" fill="#E7E7E7"/>
<path fill-rule="evenodd" clip-rule="evenodd" d="M37 5C37 3.34315 38.3431 2 40 2C41.6569 2 43 3.34315 43 5H37ZM35 5C35 2.23858 37.2386 0 40 0C42.7614 0 45 2.23858 45 5H64.5349C66.4486 5 68 6.567 68 8.5C68 10.433 66.4486 12 64.5349 12H64.1167L61.4319 37H64.0349C66.2248 37 68 38.7909 68 41C68 42.883 66.7103 44.4621 64.9734 44.8873C64.673 49.882 61.8513 54.3174 57.5706 57.5279C56.3808 58.4203 55.075 59.2212 53.6727 59.9172L58.2474 77.9786H68.5C69.0523 77.9786 69.5 78.4311 69.5 78.9893C69.5 79.5475 69.0523 80 68.5 80H10C9.44772 80 9 79.5475 9 78.9893C9 78.4311 9.44772 77.9786 10 77.9786H21.1752L25.7659 59.6303C24.5753 59.0037 23.4589 58.3001 22.4294 57.5279C18.1487 54.3174 15.327 49.882 15.0266 44.8873C13.2897 44.4621 12 42.883 12 41C12 38.7909 13.7752 37 15.9651 37H17.6111L14.9217 11.9572C13.2661 11.6938 12 10.2463 12 8.5C12 6.567 13.5514 5 15.4651 5H35ZM14 8.5C14 7.68271 14.6559 7.02016 15.4651 7.02016H64.5349C65.3441 7.02016 66 7.6827 66 8.5C66 9.31729 65.3441 9.97984 64.5349 9.97984H15.4651C14.6559 9.97984 14 9.3173 14 8.5ZM62.1052 12L59.4204 37H19.6226L16.9378 12H62.1052ZM23.6294 55.9279C19.7795 53.0405 17.3711 49.1976 17.0394 45H62.9606C62.6289 49.1976 60.2205 53.0405 56.3706 55.9279C52.2165 59.0434 46.432 61 40 61C33.568 61 27.7835 59.0434 23.6294 55.9279ZM40 63C44.2653 63 48.2933 62.1899 51.821 60.7521L56.1946 77.9786H23.2265L27.6074 60.5117C31.2689 62.0993 35.5025 63 40 63ZM64.0349 39.0176H15.9651C14.8798 39.0176 14 39.9052 14 41C14 42.0948 14.8798 42.9824 15.9651 42.9824H64.0349C65.1202 42.9824 66 42.0948 66 41C66 39.9052 65.1202 39.0176 64.0349 39.0176Z" fill="#151716"/>
</svg>
