<svg width="80" height="80" viewBox="0 0 80 80" fill="none" xmlns="http://www.w3.org/2000/svg">
<g clip-path="url(#clip0_2432_11241)">
<path d="M8 15.8C8 14.8059 8.80589 14 9.8 14H63.2C64.1941 14 65 14.8059 65 15.8V21.2C65 22.1941 64.1941 23 63.2 23H9.8C8.80589 23 8 22.1941 8 21.2V15.8Z" fill="white"/>
<path fill-rule="evenodd" clip-rule="evenodd" d="M7.09961 15.8001C7.09961 14.3089 8.30844 13.1001 9.79961 13.1001H63.1996C64.6908 13.1001 65.8996 14.3089 65.8996 15.8001V21.2001C65.8996 22.6913 64.6908 23.9001 63.1996 23.9001H9.79961C8.30844 23.9001 7.09961 22.6913 7.09961 21.2001V15.8001ZM9.79961 14.9001C9.30255 14.9001 8.89961 15.303 8.89961 15.8001V21.2001C8.89961 21.6972 9.30255 22.1001 9.79961 22.1001H63.1996C63.6967 22.1001 64.0996 21.6972 64.0996 21.2001V15.8001C64.0996 15.303 63.6967 14.9001 63.1996 14.9001H9.79961Z" fill="#151716"/>
<path fill-rule="evenodd" clip-rule="evenodd" d="M38.0683 5.44095C37.7224 6.05976 37.5 6.88421 37.5 8V13.5H35.5V8C35.5 6.61579 35.7776 5.44024 36.3224 4.4653C36.8695 3.48622 37.6538 2.76777 38.5739 2.25249C40.3722 1.24546 42.7174 1 45 1H66C69.4977 1 72.1578 2.22023 73.9334 4.20898C75.6925 6.17917 76.5 8.8088 76.5 11.5V90H74.5V11.5C74.5 9.1912 73.8075 7.07083 72.4416 5.54102C71.0922 4.02977 69.0023 3 66 3H45C42.7826 3 40.8778 3.25454 39.5511 3.99751C38.9087 4.35723 38.4117 4.82628 38.0683 5.44095Z" fill="#151716"/>
<path fill-rule="evenodd" clip-rule="evenodd" d="M11.5 26C11.7761 26 12 26.4147 12 26.9263V37.1158C12 37.6273 11.7761 38.0421 11.5 38.0421C11.2239 38.0421 11 37.6273 11 37.1158V26.9263C11 26.4147 11.2239 26 11.5 26ZM11.5 41.9787C11.7761 41.9787 12 42.3934 12 42.905V49.3892C12 49.9008 11.7761 50.3155 11.5 50.3155C11.2239 50.3155 11 49.9008 11 49.3892V42.905C11 42.3934 11.2239 41.9787 11.5 41.9787ZM12 55.1788C12 54.6672 11.7761 54.2524 11.5 54.2524C11.2239 54.2524 11 54.6672 11 55.1788V63.5156C11 64.0272 11.2239 64.4419 11.5 64.4419C11.7761 64.4419 12 64.0272 12 63.5156V55.1788ZM56.5 26C56.7761 26 57 26.4147 57 26.9263V37.1158C57 37.6273 56.7761 38.0421 56.5 38.0421C56.2239 38.0421 56 37.6273 56 37.1158V26.9263C56 26.4147 56.2239 26 56.5 26ZM57 42.905C57 42.3934 56.7761 41.9787 56.5 41.9787C56.2239 41.9787 56 42.3934 56 42.905V49.3892C56 49.9008 56.2239 50.3155 56.5 50.3155C56.7761 50.3155 57 49.9008 57 49.3892V42.905ZM56.5 54.2524C56.7761 54.2524 57 54.6672 57 55.1788V63.5156C57 64.0272 56.7761 64.4419 56.5 64.4419C56.2239 64.4419 56 64.0272 56 63.5156V55.1788C56 54.6672 56.2239 54.2524 56.5 54.2524ZM17 26.9263C17 26.4147 16.7761 26 16.5 26C16.2239 26 16 26.4147 16 26.9263V31.5579C16 32.0695 16.2239 32.4842 16.5 32.4842C16.7761 32.4842 17 32.0695 17 31.5579V26.9263ZM16.5 36.421C16.7761 36.421 17 36.8358 17 37.3473V45.6842C17 46.1957 16.7761 46.6105 16.5 46.6105C16.2239 46.6105 16 46.1957 16 45.6842V37.3473C16 36.8358 16.2239 36.421 16.5 36.421ZM17 52.6317C17 52.1201 16.7761 51.7054 16.5 51.7054C16.2239 51.7054 16 52.1201 16 52.6317V68.3791C16 68.8907 16.2239 69.3054 16.5 69.3054C16.7761 69.3054 17 68.8907 17 68.3791V52.6317ZM21.5 26C21.7761 26 22 26.4147 22 26.9263V40.821C22 41.3326 21.7761 41.7473 21.5 41.7473C21.2239 41.7473 21 41.3326 21 40.821V26.9263C21 26.4147 21.2239 26 21.5 26ZM22 46.6105C22 46.0989 21.7761 45.6842 21.5 45.6842C21.2239 45.6842 21 46.0989 21 46.6105V56.7999C21 57.3115 21.2239 57.7262 21.5 57.7262C21.7761 57.7262 22 57.3115 22 56.7999V46.6105ZM21.5 61.6628C21.7761 61.6628 22 62.0776 22 62.5892V69.0733C22 69.5849 21.7761 69.9997 21.5 69.9997C21.2239 69.9997 21 69.5849 21 69.0733V62.5892C21 62.0776 21.2239 61.6628 21.5 61.6628ZM27 26.9263C27 26.4147 26.7761 26 26.5 26C26.2239 26 26 26.4147 26 26.9263V31.5579C26 32.0695 26.2239 32.4842 26.5 32.4842C26.7761 32.4842 27 32.0695 27 31.5579V26.9263ZM26.5 36.421C26.7761 36.421 27 36.8358 27 37.3473V53.0947C27 53.6063 26.7761 54.021 26.5 54.021C26.2239 54.021 26 53.6063 26 53.0947V37.3473C26 36.8358 26.2239 36.421 26.5 36.421ZM27 58.8842C27 58.3727 26.7761 57.9579 26.5 57.9579C26.2239 57.9579 26 58.3727 26 58.8842V69.0737C26 69.5853 26.2239 70 26.5 70C26.7761 70 27 69.5853 27 69.0737V58.8842ZM31.5 26C31.7761 26 32 26.4147 32 26.9263V40.821C32 41.3326 31.7761 41.7473 31.5 41.7473C31.2239 41.7473 31 41.3326 31 40.821V26.9263C31 26.4147 31.2239 26 31.5 26ZM32 46.6105C32 46.0989 31.7761 45.6842 31.5 45.6842C31.2239 45.6842 31 46.0989 31 46.6105V56.7999C31 57.3115 31.2239 57.7262 31.5 57.7262C31.7761 57.7262 32 57.3115 32 56.7999V46.6105ZM31.5 61.6628C31.7761 61.6628 32 62.0776 32 62.5892V69.0733C32 69.5849 31.7761 69.9997 31.5 69.9997C31.2239 69.9997 31 69.5849 31 69.0733V62.5892C31 62.0776 31.2239 61.6628 31.5 61.6628ZM37 26.9263C37 26.4147 36.7761 26 36.5 26C36.2239 26 36 26.4147 36 26.9263V31.5579C36 32.0695 36.2239 32.4842 36.5 32.4842C36.7761 32.4842 37 32.0695 37 31.5579V26.9263ZM36.5 36.421C36.7761 36.421 37 36.8358 37 37.3473V45.6842C37 46.1957 36.7761 46.6105 36.5 46.6105C36.2239 46.6105 36 46.1957 36 45.6842V37.3473C36 36.8358 36.2239 36.421 36.5 36.421ZM37 51.4738C37 50.9623 36.7761 50.5475 36.5 50.5475C36.2239 50.5475 36 50.9623 36 51.4738V67.2212C36 67.7328 36.2239 68.1475 36.5 68.1475C36.7761 68.1475 37 67.7328 37 67.2212V51.4738ZM51.5 26C51.7761 26 52 26.4147 52 26.9263V31.5579C52 32.0695 51.7761 32.4842 51.5 32.4842C51.2239 32.4842 51 32.0695 51 31.5579V26.9263C51 26.4147 51.2239 26 51.5 26ZM52 37.3473C52 36.8358 51.7761 36.421 51.5 36.421C51.2239 36.421 51 36.8358 51 37.3473V45.6842C51 46.1957 51.2239 46.6105 51.5 46.6105C51.7761 46.6105 52 46.1957 52 45.6842V37.3473ZM51.5 50.5475C51.7761 50.5475 52 50.9623 52 51.4738V67.2212C52 67.7328 51.7761 68.1475 51.5 68.1475C51.2239 68.1475 51 67.7328 51 67.2212V51.4738C51 50.9623 51.2239 50.5475 51.5 50.5475ZM42 26.9263C42 26.4147 41.7761 26 41.5 26C41.2239 26 41 26.4147 41 26.9263V35.2631C41 35.7747 41.2239 36.1894 41.5 36.1894C41.7761 36.1894 42 35.7747 42 35.2631V26.9263ZM41.5 40.1265C41.7761 40.1265 42 40.5412 42 41.0528V56.8001C42 57.3117 41.7761 57.7265 41.5 57.7265C41.2239 57.7265 41 57.3117 41 56.8001V41.0528C41 40.5412 41.2239 40.1265 41.5 40.1265ZM42 62.5892C42 62.0776 41.7761 61.6628 41.5 61.6628C41.2239 61.6628 41 62.0776 41 62.5892V67.2207C41 67.7323 41.2239 68.147 41.5 68.147C41.7761 68.147 42 67.7323 42 67.2207V62.5892ZM46.5 26C46.7761 26 47 26.4147 47 26.9263V40.821C47 41.3326 46.7761 41.7473 46.5 41.7473C46.2239 41.7473 46 41.3326 46 40.821V26.9263C46 26.4147 46.2239 26 46.5 26ZM47 46.6105C47 46.0989 46.7761 45.6842 46.5 45.6842C46.2239 45.6842 46 46.0989 46 46.6105V56.7999C46 57.3115 46.2239 57.7262 46.5 57.7262C46.7761 57.7262 47 57.3115 47 56.7999V46.6105ZM46.5 61.6628C46.7761 61.6628 47 62.0776 47 62.5892V69.0733C47 69.5849 46.7761 69.9997 46.5 69.9997C46.2239 69.9997 46 69.5849 46 69.0733V62.5892C46 62.0776 46.2239 61.6628 46.5 61.6628ZM62 26.9263C62 26.4147 61.7761 26 61.5 26C61.2239 26 61 26.4147 61 26.9263V40.821C61 41.3326 61.2239 41.7473 61.5 41.7473C61.7761 41.7473 62 41.3326 62 40.821V26.9263ZM61.5 45.6842C61.7761 45.6842 62 46.0989 62 46.6105V56.7999C62 57.3115 61.7761 57.7262 61.5 57.7262C61.2239 57.7262 61 57.3115 61 56.7999V46.6105C61 46.0989 61.2239 45.6842 61.5 45.6842ZM62 62.5892C62 62.0776 61.7761 61.6628 61.5 61.6628C61.2239 61.6628 61 62.0776 61 62.5892V69.0733C61 69.5849 61.2239 69.9997 61.5 69.9997C61.7761 69.9997 62 69.5849 62 69.0733V62.5892Z" fill="url(#paint0_linear_2432_11241)"/>
</g>
<defs>
<linearGradient id="paint0_linear_2432_11241" x1="29" y1="26" x2="29" y2="76.9472" gradientUnits="userSpaceOnUse">
<stop stop-color="#ABABAB"/>
<stop offset="1" stop-color="white"/>
</linearGradient>
<clipPath id="clip0_2432_11241">
<rect width="80" height="80" fill="white"/>
</clipPath>
</defs>
</svg>
