<svg width="80" height="73" viewBox="0 0 80 73" fill="none" xmlns="http://www.w3.org/2000/svg">
<path d="M39.5954 17.3426C36.5853 17.3426 33.9753 16.8453 33.0466 16.5967L32.293 23.0311C32.293 23.0311 35.1797 25.4305 39.8774 25.4305C44.8978 25.4305 47.724 23.0311 47.724 23.0311L46.8207 16.5967C45.6665 16.8453 42.6056 17.3426 39.5954 17.3426Z" fill="#E7E7E7"/>
<path fill-rule="evenodd" clip-rule="evenodd" d="M35.0893 4.1258C36.36 2.78194 38.1126 2 39.9316 2V0C37.5378 0 35.267 1.02676 33.6361 2.75174C32.9848 3.44051 32.5549 4.10681 32.3052 4.87357C32.0622 5.62019 32.0142 6.39214 32.0142 7.23241C32.0142 7.95038 31.7772 18.0978 31.4686 25.0725C31.2792 29.3512 30.9445 34.8298 30.6567 39.2433C30.5129 41.4491 30.381 43.387 30.2849 44.7735C30.2369 45.4667 30.1979 46.022 30.1709 46.4039L30.1398 46.8422L30.1321 46.9499C30.0496 47.4147 29.6714 48.0101 29.1137 48.5379C28.8434 48.7938 28.5683 48.9974 28.3369 49.1306L28.3105 49.1456C28.1568 49.0489 27.9926 48.9777 27.8222 48.9207C27.4568 48.7986 27.0677 48.8167 26.8594 48.8307C26.7705 48.8367 26.6832 48.8449 26.6121 48.8519C24.7377 47.9579 21.2349 46.2898 20.5499 45.9744C19.2937 45.3959 18.1942 45.7026 17.5008 46.3174C17.4525 46.3602 17.4087 46.4022 17.3694 46.442C16.982 46.2196 16.4496 45.8759 16.0239 45.6012L16.0211 45.5994C15.9032 45.5233 15.7935 45.4525 15.6975 45.3911C15.692 45.3831 15.6851 45.3724 15.6768 45.3584C15.6356 45.289 15.5903 45.1893 15.5466 45.0696C15.5043 44.9536 15.4714 44.8406 15.4491 44.7553C15.4381 44.7135 15.4301 44.6801 15.4252 44.6587L15.4202 44.6364L15.42 44.6354L15.4199 44.6351L15.4198 44.6349L15.4198 44.6348L15.4197 44.6343L15.4197 44.6342L15.4197 44.634L15.4196 44.6335L15.4195 44.6331L15.4195 44.6331L15.4194 44.6329L15.4194 44.6327L15.4176 44.6234L15.4112 44.5888L15.4076 44.5679C15.3986 44.5161 15.3855 44.4356 15.3712 44.3301C15.3426 44.1188 15.3093 43.8095 15.2933 43.4324C15.2604 42.6516 15.428 41.9365 16.0561 41.3967C16.1747 41.2947 16.2996 41.1919 16.428 41.086C17.2047 40.4463 18.1131 39.698 18.5676 38.3866C19.0448 37.0097 18.7262 35.4418 17.5186 34.2308C16.9104 33.6209 16.0767 33.1588 15.2053 32.9892C14.3268 32.8182 13.307 32.9324 12.4969 33.6414C10.9757 34.9725 10.5303 36.468 10.2505 37.6032C10.2228 37.7156 10.1975 37.8204 10.1738 37.9184L10.1737 37.9188L10.1737 37.9191C10.0718 38.3412 9.99975 38.6395 9.89192 38.898C9.78743 39.1485 9.6872 39.2604 9.56372 39.3319C8.99781 39.5657 8.57773 39.6383 8.14662 39.6383C7.02191 39.6383 5.81284 40.5103 4.18689 43.0918C3.34544 44.4278 2.88891 45.4321 2.66778 46.1981C2.44727 46.962 2.44265 47.5543 2.59499 48.0126C2.74052 48.4504 3.04554 48.7092 3.25656 48.8485C3.26469 48.9722 3.26847 49.1202 3.25693 49.2938C3.23139 49.678 3.12828 50.2266 2.78447 50.9162C2.48123 51.5243 2.15409 51.7851 1.74873 52.0977L1.70632 52.1304C1.26577 52.4695 0.682414 52.9186 0.313848 53.8426C-0.388181 55.6025 0.136091 57.4119 1.40309 58.5009C2.08479 59.0868 3.09058 59.409 4.00198 59.4699C4.88177 59.5288 6.02867 59.3615 6.74106 58.528C7.24948 57.9332 7.6553 57.12 7.95941 56.4125C8.22542 55.7937 8.44434 55.1801 8.59712 54.752L8.59714 54.7519C8.62288 54.6798 8.64675 54.6129 8.66865 54.5521C8.89281 53.9301 9.1164 53.6068 9.36611 53.3697C9.64164 53.1081 10.0063 52.8933 10.6493 52.5595C10.756 52.5041 11.055 52.393 11.4265 52.2777C11.5983 52.2244 11.7654 52.1765 11.9038 52.1399C11.9283 52.1335 11.9515 52.1275 11.9733 52.122C12.0086 52.1385 12.0556 52.1622 12.1154 52.1958C12.2968 52.2977 12.5131 52.4428 12.7449 52.6121C12.9737 52.7792 13.2003 52.9569 13.4019 53.1177L13.4182 53.1307C13.3766 53.3795 13.3402 53.6565 13.3402 53.9077C13.3402 54.4917 13.5156 55.1593 14.1544 55.6719C14.7109 56.1183 18.4184 58.7004 20.3601 60.0459C20.4014 60.1274 20.4503 60.22 20.5008 60.3073C20.5621 60.4131 20.6428 60.5416 20.7401 60.6632C20.823 60.7668 20.9874 60.9553 21.236 61.0799C21.5389 61.2318 21.9117 61.2764 22.0743 61.2939C22.0947 61.2961 22.1146 61.2981 22.134 61.3C22.9937 61.9423 23.5405 62.3195 23.9952 62.6332L24.1359 62.7303C24.644 63.0814 25.0583 63.3745 25.7717 63.9611C25.8495 64.025 25.9253 64.087 25.999 64.1474L26.0002 64.1483C26.6737 64.6994 27.1814 65.1149 27.5664 65.6515C27.9556 66.1938 28.2385 66.8999 28.2385 68.0661C28.2385 70.2329 28.1473 71.2434 28.1172 71.4251L27.9242 72.5888H29.1037H39.9316V70.5888H30.1867C30.2164 69.9832 30.2385 69.1513 30.2385 68.0661C30.2385 66.5226 29.8473 65.3996 29.1914 64.4855C28.6416 63.7193 27.9179 63.1301 27.2756 62.6071C27.1963 62.5425 27.1182 62.4789 27.0418 62.4161C26.272 61.7832 25.8098 61.4559 25.2729 61.0849L25.1317 60.9874C24.6421 60.6497 24.0648 60.2514 23.0982 59.5231L22.8415 59.3296L22.5217 59.3221L22.5213 59.322L22.5208 59.322L22.5205 59.322L22.5204 59.322L22.5203 59.322L22.5201 59.322L22.5094 59.3216C22.4985 59.3212 22.4813 59.3205 22.4593 59.3193C22.4145 59.3168 22.3538 59.3125 22.2892 59.3055C22.2678 59.3032 22.2471 59.3007 22.2276 59.2981C22.195 59.2414 22.1621 59.1783 22.1298 59.1136L22.1029 59.0591L22.0826 59.0174L22.0599 58.9705L22.0376 58.9253L21.923 58.6955L21.712 58.5493C19.7903 57.2188 15.9112 54.5172 15.4059 54.1118C15.3669 54.0805 15.3608 54.0644 15.3591 54.0599L15.3588 54.0593C15.3539 54.0473 15.3402 54.006 15.3402 53.9077C15.3402 53.8051 15.3546 53.6749 15.3853 53.4938C15.3999 53.4081 15.4164 53.3203 15.435 53.2214L15.4372 53.2095C15.4561 53.109 15.477 52.9975 15.4959 52.8838L15.5953 52.2855L15.1107 51.9208C15.0467 51.8727 14.9576 51.8012 14.8364 51.7041C14.7808 51.6595 14.7185 51.6096 14.6488 51.554C14.5072 51.441 14.3452 51.3132 14.1734 51.1826C15.1316 50.4518 15.75 49.2981 15.75 48C15.75 47.9316 15.7483 47.8635 15.7449 47.7959C16.06 47.9929 16.373 48.1816 16.6116 48.3085C16.9126 48.4687 17.3731 48.6678 17.8866 48.5273C18.287 48.4178 18.5274 48.1465 18.6177 48.0446L18.6211 48.0408C18.6631 47.9934 18.6928 47.9588 18.7162 47.9316L18.7163 47.9315C18.7627 47.8774 18.7842 47.8524 18.8277 47.8139C18.9039 47.7463 19.0021 47.6933 19.1229 47.6744C19.2383 47.6564 19.4301 47.6606 19.7133 47.791C20.4128 48.1131 24.1845 49.9096 25.9915 50.7717L26.1957 50.8692H26.422C26.5336 50.8692 26.6567 50.8571 26.7325 50.8497L26.7381 50.8491L26.7775 50.8453L26.7781 50.8452L26.7785 50.8452C26.856 50.8375 26.9235 50.8309 26.9935 50.8262C27.0741 50.8208 27.135 50.8198 27.1794 50.822C27.1865 50.8224 27.1925 50.8228 27.1974 50.8232L27.2073 50.8242L27.2109 50.8255L27.5022 51.2764H28.0467C28.5193 51.2764 28.9872 51.064 29.3349 50.8638C29.7199 50.6421 30.1197 50.3396 30.4886 49.9905C31.1962 49.3207 31.9488 48.3262 32.1154 47.2137L32.1211 47.1757L32.1238 47.1373L31.1264 47.0656C32.1238 47.1373 32.1238 47.1373 32.1238 47.1372L32.1239 47.1367L32.124 47.1348L32.1245 47.1275L32.1266 47.0985L32.1347 46.9845L32.166 46.5449C32.193 46.1621 32.2321 45.6059 32.2802 44.9116C32.3763 43.5232 32.5085 41.5825 32.6525 39.3734C32.9404 34.9573 33.2763 29.4615 33.4666 25.1609C33.568 22.8701 33.6618 20.2358 33.742 17.7028C34.1679 18.1178 34.803 18.4824 35.5883 18.7704L35.5882 18.7831C35.5882 19.9077 37.4723 20.8193 39.7964 20.8193C42.0635 20.8193 43.9119 19.9519 44.0012 18.8655C44.9133 18.5643 45.6474 18.1644 46.1215 17.7019C46.2018 20.2352 46.2956 22.8698 46.397 25.1609C46.5873 29.4615 46.9232 34.9573 47.2111 39.3734C47.3551 41.5825 47.4873 43.5232 47.5834 44.9116C47.6315 45.6059 47.6706 46.1621 47.6976 46.5449L47.7288 46.9845L47.737 47.0985L47.7391 47.1275L47.7396 47.1348L47.7397 47.1367L47.7397 47.1372C47.7398 47.1373 47.7398 47.1373 48.7372 47.0656L47.7398 47.1373L47.7425 47.1757L47.7482 47.2137C47.9148 48.3262 48.6673 49.3207 49.375 49.9905C49.7439 50.3396 50.1437 50.6421 50.5286 50.8638C50.8764 51.064 51.3442 51.2764 51.8169 51.2764H52.3614L52.6527 50.8255L52.6562 50.8242L52.669 50.823L52.6842 50.822C52.7286 50.8198 52.7895 50.8208 52.8701 50.8262C52.9402 50.8309 53.0078 50.8376 53.0855 50.8452L53.0861 50.8453L53.1254 50.8491L53.1311 50.8497C53.2069 50.8571 53.3299 50.8692 53.4415 50.8692H53.6679L53.8721 50.7717C55.6791 49.9096 59.4508 48.1131 60.1502 47.791C60.4335 47.6606 60.6253 47.6564 60.7407 47.6744C60.8615 47.6933 60.9597 47.7463 61.0359 47.8139C61.0794 47.8524 61.1009 47.8774 61.1473 47.9315C61.1707 47.9587 61.2004 47.9934 61.2425 48.0408L61.2459 48.0446C61.3361 48.1465 61.5766 48.4178 61.977 48.5273C62.4905 48.6678 62.951 48.4687 63.252 48.3085C63.5953 48.1259 64.0926 47.8153 64.5286 47.5365C64.6912 48.893 65.5327 50.0409 66.7036 50.6304C65.964 51.1014 65.0851 51.6709 64.7529 51.9208L64.2682 52.2855L64.3677 52.8838C64.3866 52.9975 64.4075 53.109 64.4264 53.2095L64.4286 53.2214L64.4287 53.2219C64.4473 53.3206 64.4637 53.4082 64.4782 53.4938C64.509 53.6749 64.5234 53.8051 64.5234 53.9077C64.5234 54.006 64.5097 54.0473 64.5048 54.0593L64.5045 54.0599C64.5028 54.0644 64.4966 54.0805 64.4577 54.1118C63.9523 54.5172 60.0732 57.2188 58.1516 58.5493L57.9405 58.6955L57.826 58.9253C57.8136 58.9501 57.7994 58.9794 57.7867 59.0054L57.7809 59.0174C57.7658 59.0487 57.7503 59.0805 57.7337 59.1136C57.7015 59.1783 57.6686 59.2414 57.636 59.2981L57.6076 59.3017L57.5744 59.3055C57.5098 59.3125 57.4491 59.3168 57.4043 59.3193C57.3823 59.3205 57.365 59.3212 57.3542 59.3216L57.3435 59.322L57.3433 59.322L57.3432 59.322L57.3431 59.322L57.3428 59.322L57.3423 59.322L57.3419 59.3221L57.0221 59.3296L56.7653 59.5231C55.7988 60.2514 55.2215 60.6497 54.7319 60.9874L54.7319 60.9874L54.5906 61.0849C54.0538 61.4559 53.5916 61.7832 52.8218 62.4161C52.746 62.4784 52.6684 62.5416 52.5897 62.6057L52.5879 62.6071C51.9456 63.1301 51.222 63.7193 50.6722 64.4855C50.0163 65.3996 49.625 66.5226 49.625 68.0661C49.625 69.1513 49.6472 69.9832 49.6768 70.5888H39.932V72.5888H50.7599H51.9394L51.7464 71.4251C51.7163 71.2434 51.625 70.2329 51.625 68.0661C51.625 66.8999 51.908 66.1938 52.2972 65.6515C52.6822 65.1149 53.1899 64.6994 53.8633 64.1483L53.8646 64.1473C53.9383 64.087 54.0141 64.025 54.0918 63.9611C54.8053 63.3745 55.2196 63.0814 55.7277 62.7303L55.8683 62.6332C56.3231 62.3195 56.8699 61.9423 57.7296 61.3L57.7653 61.2965L57.7892 61.2939C57.9519 61.2764 58.3246 61.2318 58.6276 61.0799C58.8762 60.9553 59.0405 60.7668 59.1234 60.6632C59.2207 60.5416 59.3014 60.4131 59.3627 60.3073C59.4133 60.22 59.4621 60.1274 59.5035 60.0459C61.4452 58.7004 65.1526 56.1183 65.7092 55.6719C66.348 55.1593 66.5234 54.4917 66.5234 53.9077C66.5234 53.6715 66.4912 53.4125 66.4527 53.1756C66.9404 52.8512 67.6378 52.4051 68.1813 52.0615C68.4876 52.1875 68.8092 52.3491 69.2143 52.5595C69.8572 52.8933 70.2219 53.1081 70.4975 53.3697C70.7472 53.6068 70.9708 53.9301 71.1949 54.5521C71.2168 54.6129 71.2407 54.6798 71.2664 54.7519L71.2665 54.7523L71.2669 54.7532C71.4196 55.1813 71.6384 55.7942 71.9042 56.4125C72.2083 57.12 72.6141 57.9332 73.1225 58.528C73.8349 59.3615 74.9818 59.5288 75.8616 59.4699C76.773 59.409 77.7788 59.0868 78.4605 58.5009C79.7275 57.4119 80.2518 55.6025 79.5497 53.8426C79.1812 52.9186 78.5978 52.4695 78.1573 52.1304L78.1148 52.0977C77.7095 51.7851 77.3823 51.5243 77.0791 50.9162C76.7353 50.2266 76.6322 49.678 76.6066 49.2938C76.5951 49.1202 76.5989 48.9722 76.607 48.8485C76.818 48.7092 77.1231 48.4504 77.2686 48.0126C77.511 47.2833 77.748 45.5666 75.9868 42.7703C75.1187 41.3921 74.2931 40.5902 73.5293 40.1414C72.7376 39.6763 72.0924 39.6383 71.717 39.6383C71.2859 39.6383 70.8658 39.5657 70.2999 39.3319C70.1764 39.2604 70.0761 39.1485 69.9717 38.898C69.8638 38.6395 69.7918 38.3412 69.6899 37.9191C69.6662 37.8209 69.6409 37.7159 69.6131 37.6032C69.3333 36.468 68.8879 34.9725 67.3667 33.6414C66.5565 32.9324 65.5367 32.8182 64.6583 32.9892C63.7869 33.1588 62.9532 33.6209 62.345 34.2308C61.1374 35.4418 60.8188 37.0097 61.296 38.3866C61.7505 39.698 62.6589 40.4463 63.4355 41.086C63.564 41.1919 63.6889 41.2947 63.8075 41.3967C64.4355 41.9365 64.6032 42.6516 64.5702 43.4324C64.5543 43.8095 64.521 44.1188 64.4924 44.3301C64.4781 44.4356 64.465 44.5161 64.456 44.5679C64.4515 44.5938 64.4481 44.6125 64.446 44.6234L64.4442 44.6327L64.4441 44.6329L64.4441 44.6331L64.444 44.6335L64.4439 44.634L64.4439 44.6342L64.4438 44.6343L64.4437 44.6348L64.4437 44.6349L64.4437 44.6351L64.4436 44.6354L64.4434 44.6364L64.4384 44.6587C64.4358 44.6699 64.4324 44.6843 64.4282 44.7015L64.4217 44.7277L64.4145 44.7553C64.3922 44.8406 64.3593 44.9536 64.317 45.0696C64.2733 45.1893 64.228 45.289 64.1868 45.3584L64.1798 45.3699L64.1752 45.3772L64.1661 45.3911L64.0466 45.4678L63.8513 45.5937L63.8453 45.5975L63.8445 45.5981L63.8397 45.6012L63.8396 45.6012C63.4139 45.876 62.8815 46.2196 62.4942 46.442C62.4548 46.4022 62.4111 46.3602 62.3628 46.3174C61.6694 45.7026 60.5699 45.3959 59.3137 45.9744C58.6287 46.2898 55.1259 47.9579 53.2515 48.8519C53.1803 48.8449 53.0931 48.8367 53.0042 48.8307C52.7958 48.8167 52.4067 48.7986 52.0413 48.9207C51.871 48.9777 51.7068 49.0489 51.553 49.1456L51.5266 49.1306C51.2953 48.9974 51.0201 48.7938 50.7498 48.5379C50.1922 48.0101 49.814 47.4147 49.7315 46.9499L49.7238 46.8422L49.6926 46.4039C49.6656 46.022 49.6266 45.4667 49.5786 44.7735C49.4826 43.387 49.3507 41.4491 49.2069 39.2433C48.9191 34.8298 48.5844 29.3512 48.395 25.0725C48.0863 18.0978 47.8493 7.95038 47.8493 7.23241C47.8493 6.39214 47.8014 5.62019 47.5583 4.87357C47.3087 4.10681 46.8787 3.44051 46.2275 2.75174C44.5965 1.02676 42.3258 0 39.932 0V2C41.751 2 43.5036 2.78194 44.7743 4.1258C45.2759 4.65641 45.5202 5.07401 45.6566 5.49276C45.7995 5.93165 45.8493 6.44683 45.8493 7.23241C45.8493 7.65919 45.9243 11.0489 46.0448 15.1763C44.9467 14.1776 42.6218 13.4888 39.9313 13.4888C37.2416 13.4888 34.9173 14.1772 33.8189 15.1754C33.9393 11.0484 34.0142 7.65916 34.0142 7.23241C34.0142 6.44683 34.0641 5.93165 34.207 5.49276C34.3433 5.07401 34.5876 4.65641 35.0893 4.1258ZM70.0545 50.7423C70.0815 50.7563 70.1087 50.7703 70.1358 50.7845C70.7658 51.1115 71.3691 51.4394 71.8745 51.9193C72.4057 52.4236 72.776 53.0404 73.0765 53.874L73.129 54.0206L73.1537 54.0896L73.1537 54.0897C73.3075 54.5202 73.5029 55.0673 73.7416 55.6227C74.0291 56.2914 74.339 56.8731 74.6428 57.2285C74.7426 57.3453 75.0849 57.5174 75.7282 57.4744C76.3398 57.4335 76.8909 57.2127 77.1568 56.9842C77.7851 56.4442 78.073 55.5386 77.6921 54.5836C77.5311 54.1801 77.3283 54.0169 76.8933 53.6814C76.4187 53.3153 75.7983 52.8294 75.2893 51.8086C74.8208 50.8692 74.6532 50.0604 74.6111 49.4264C74.5901 49.112 74.6008 48.8503 74.616 48.6515C74.6224 48.5683 74.6298 48.4938 74.6351 48.4406L74.6375 48.4171C74.6411 48.3803 74.6424 48.3637 74.6428 48.3596C74.6487 47.9019 74.9029 47.6013 75.0852 47.4477C75.2015 47.3499 75.3407 47.2703 75.4079 47.2334C75.4765 46.8555 75.5118 45.7689 74.2945 43.8362C73.5381 42.6352 72.9226 42.1046 72.5161 41.8658C72.1374 41.6433 71.883 41.6383 71.717 41.6383C70.9835 41.6383 70.2896 41.4986 69.4792 41.1565L69.443 41.1412L69.4081 41.1232C68.7299 40.7718 68.3566 40.2213 68.1258 39.6681C67.9505 39.2477 67.833 38.7562 67.7307 38.3283L67.7297 38.3241L67.6953 38.1808L67.6712 38.0818C67.4219 37.0705 67.1021 36.0675 66.0496 35.1465C65.8288 34.9532 65.4949 34.8639 65.0404 34.9523C64.5789 35.0422 64.1006 35.3027 63.7612 35.643C63.0736 36.3325 62.9683 37.1044 63.1857 37.7316C63.4444 38.4781 63.8824 38.8456 64.6486 39.4884L64.6489 39.4887C64.7913 39.6082 64.9451 39.7372 65.1112 39.88C66.3784 40.9691 66.6156 42.3987 66.5685 43.5167C66.5679 43.5288 66.5674 43.5409 66.5669 43.5528C67.1399 43.2359 67.7989 43.0555 68.5 43.0555C70.7091 43.0555 72.5 44.8464 72.5 47.0555C72.5 48.7134 71.4915 50.1356 70.0545 50.7423ZM7.75 48C7.75 49.2347 8.30947 50.3388 9.18873 51.0726C8.75649 51.3142 8.34808 51.5784 7.98907 51.9193C7.45783 52.4236 7.08753 53.0404 6.7871 53.874C6.76265 53.9419 6.73693 54.0139 6.70992 54.0896L6.7099 54.0896C6.55614 54.5201 6.36072 55.0673 6.12197 55.6227C5.83452 56.2914 5.5246 56.8731 5.22077 57.2285C5.12093 57.3453 4.77863 57.5174 4.13538 57.4744C3.52375 57.4335 2.97265 57.2127 2.70674 56.9842C2.07852 56.4442 1.79055 55.5386 2.17151 54.5836C2.33248 54.1801 2.53524 54.0169 2.97028 53.6814C3.44484 53.3153 4.06531 52.8294 4.57431 51.8086C5.04274 50.8692 5.21038 50.0604 5.25252 49.4264C5.27343 49.112 5.26282 48.8503 5.24757 48.6515C5.24118 48.5683 5.23374 48.4938 5.22843 48.4406L5.22608 48.4171C5.22245 48.3803 5.22116 48.3637 5.22078 48.3596C5.21487 47.9019 4.96065 47.6013 4.77833 47.4477C4.68021 47.3651 4.56568 47.2955 4.49191 47.2536C4.49786 47.1525 4.52066 46.9906 4.58931 46.7528C4.74046 46.2292 5.09617 45.4009 5.8792 44.1577C6.66466 42.9106 7.2427 42.2613 7.63718 41.9317C7.83007 41.7705 7.96384 41.6987 8.04126 41.6668C8.11112 41.638 8.14276 41.6383 8.14639 41.6383H8.14662C8.88007 41.6383 9.574 41.4986 10.3844 41.1565L10.4206 41.1412L10.4555 41.1232C11.1337 40.7718 11.5069 40.2213 11.7377 39.6681C11.9131 39.2477 12.0306 38.7562 12.1329 38.3283L12.133 38.328C12.1533 38.2431 12.173 38.1607 12.1924 38.0818C12.4417 37.0705 12.7614 36.0675 13.814 35.1465C14.0348 34.9532 14.3687 34.8639 14.8231 34.9523C15.2847 35.0422 15.763 35.3027 16.1024 35.643C16.79 36.3325 16.8953 37.1044 16.6779 37.7316C16.4191 38.4781 15.9811 38.8456 15.215 39.4884C15.0725 39.608 14.9186 39.7371 14.7524 39.88C13.4852 40.9691 13.2479 42.3987 13.2951 43.5167C13.3084 43.8311 13.3319 44.1079 13.3571 44.3359C12.8653 44.1199 12.3216 44 11.75 44C9.54086 44 7.75 45.7909 7.75 48ZM42.4663 17.2091C43.0324 17.0887 43.5253 16.9323 43.9252 16.7563C44.1511 16.657 44.3262 16.5606 44.4585 16.4752C44.3262 16.3898 44.1511 16.2935 43.9252 16.1941C43.0056 15.7895 41.5951 15.4888 39.9313 15.4888C38.2675 15.4888 36.857 15.7895 35.9374 16.1941C35.7115 16.2935 35.5364 16.3898 35.4041 16.4752C35.5364 16.5606 35.7115 16.657 35.9374 16.7563C36.2965 16.9143 36.7304 17.0565 37.2251 17.1711C37.9362 16.9051 38.8281 16.7469 39.7964 16.7469C40.81 16.7469 41.7399 16.9203 42.4663 17.2091ZM11.75 50C12.8546 50 13.75 49.1046 13.75 48C13.75 46.8954 12.8546 46 11.75 46C10.6454 46 9.75 46.8954 9.75 48C9.75 49.1046 10.6454 50 11.75 50ZM70.5 47.0555C70.5 48.1601 69.6046 49.0555 68.5 49.0555C67.3954 49.0555 66.5 48.1601 66.5 47.0555C66.5 45.951 67.3954 45.0555 68.5 45.0555C69.6046 45.0555 70.5 45.951 70.5 47.0555Z" fill="#151716"/>
<path d="M27.5 50C27.5 50 27.2213 52.8703 25.5 56C23.7787 59.1297 21.5 60 21.5 60" stroke="#151716" stroke-width="2"/>
<path d="M17.8819 47.412C17.8819 47.412 17.9604 48.91 17.0403 50.4603C16.1202 52.0105 14.6746 53.0877 14.6746 53.0877" stroke="#151716"/>
<path d="M62.3301 47.5C62.3301 47.5 62.3301 49 63.3301 50.5C64.3301 52 65.8301 53 65.8301 53" stroke="#151716"/>
<path d="M53 50C53 50 53.2787 52.8703 55 56C56.7213 59.1297 59 60 59 60" stroke="#151716" stroke-width="2"/>
<path d="M4 48.5C4.33333 48.5 5.72025 48.0013 7.32025 45.6013C8.92025 43.2013 9 41.5 9 41" stroke="#151716"/>
<path d="M76.2246 48.5C75.8913 48.5 74.4232 47.3166 72.8232 44.9166C71.2232 42.5166 71.2246 41.5 71.2246 41" stroke="#151716"/>
<path d="M25.5859 71.5986H54.4922" stroke="#151716" stroke-width="2" stroke-linecap="round"/>
</svg>
